<mxfile host="app.diagrams.net" agent="Mozilla/5.0 (Windows NT 10.0; Win64; x64) AppleWebKit/537.36 (KHTML, like Gecko) Chrome/127.0.0.0 Safari/537.36" version="24.7.7">
  <diagram name="Página-1" id="iGEoPPVhkgj0YghEB8j0">
    <mxGraphModel dx="1434" dy="1941" grid="1" gridSize="10" guides="1" tooltips="1" connect="1" arrows="1" fold="1" page="1" pageScale="1" pageWidth="827" pageHeight="1169" math="0" shadow="0">
      <root>
        <mxCell id="0" />
        <mxCell id="1" parent="0" />
        <mxCell id="y8cSAP5ComAQN94CUCU0-18" style="edgeStyle=orthogonalEdgeStyle;rounded=0;orthogonalLoop=1;jettySize=auto;html=1;" parent="1" source="y8cSAP5ComAQN94CUCU0-8" edge="1">
          <mxGeometry relative="1" as="geometry">
            <mxPoint x="270" y="260" as="targetPoint" />
            <Array as="points">
              <mxPoint x="230" y="280" />
              <mxPoint x="230" y="261" />
            </Array>
          </mxGeometry>
        </mxCell>
        <mxCell id="y8cSAP5ComAQN94CUCU0-8" value="Administrador " style="shape=umlActor;verticalLabelPosition=bottom;verticalAlign=top;html=1;outlineConnect=0;" parent="1" vertex="1">
          <mxGeometry x="150" y="250" width="30" height="60" as="geometry" />
        </mxCell>
        <mxCell id="y8cSAP5ComAQN94CUCU0-47" style="edgeStyle=orthogonalEdgeStyle;rounded=0;orthogonalLoop=1;jettySize=auto;html=1;dashed=1;" parent="1" source="y8cSAP5ComAQN94CUCU0-11" edge="1">
          <mxGeometry relative="1" as="geometry">
            <mxPoint x="955" y="320" as="targetPoint" />
          </mxGeometry>
        </mxCell>
        <mxCell id="y8cSAP5ComAQN94CUCU0-52" style="edgeStyle=orthogonalEdgeStyle;rounded=0;orthogonalLoop=1;jettySize=auto;html=1;dashed=1;" parent="1" source="y8cSAP5ComAQN94CUCU0-11" target="y8cSAP5ComAQN94CUCU0-49" edge="1">
          <mxGeometry relative="1" as="geometry" />
        </mxCell>
        <mxCell id="y8cSAP5ComAQN94CUCU0-54" value="&amp;lt;extend&amp;gt;" style="edgeLabel;html=1;align=center;verticalAlign=middle;resizable=0;points=[];" parent="y8cSAP5ComAQN94CUCU0-52" vertex="1" connectable="0">
          <mxGeometry x="-0.0174" y="-3" relative="1" as="geometry">
            <mxPoint as="offset" />
          </mxGeometry>
        </mxCell>
        <mxCell id="y8cSAP5ComAQN94CUCU0-11" value="Funcionario" style="shape=umlActor;verticalLabelPosition=bottom;verticalAlign=top;html=1;outlineConnect=0;" parent="1" vertex="1">
          <mxGeometry x="940" y="510" width="30" height="60" as="geometry" />
        </mxCell>
        <mxCell id="y8cSAP5ComAQN94CUCU0-42" style="edgeStyle=orthogonalEdgeStyle;rounded=0;orthogonalLoop=1;jettySize=auto;html=1;entryX=0.45;entryY=-0.025;entryDx=0;entryDy=0;entryPerimeter=0;" parent="1" source="y8cSAP5ComAQN94CUCU0-12" target="y8cSAP5ComAQN94CUCU0-34" edge="1">
          <mxGeometry relative="1" as="geometry">
            <mxPoint x="835" y="10" as="targetPoint" />
            <Array as="points">
              <mxPoint x="830" y="-75" />
              <mxPoint x="834" y="-75" />
            </Array>
          </mxGeometry>
        </mxCell>
        <mxCell id="y8cSAP5ComAQN94CUCU0-12" value="Cliente " style="shape=umlActor;verticalLabelPosition=bottom;verticalAlign=top;html=1;outlineConnect=0;" parent="1" vertex="1">
          <mxGeometry x="825" y="-130" width="30" height="60" as="geometry" />
        </mxCell>
        <mxCell id="y8cSAP5ComAQN94CUCU0-16" value="&lt;div&gt;Cadastro&lt;/div&gt;&lt;div&gt;Insumos &lt;br&gt;&lt;/div&gt;" style="ellipse;whiteSpace=wrap;html=1;" parent="1" vertex="1">
          <mxGeometry x="280" y="210" width="120" height="80" as="geometry" />
        </mxCell>
        <mxCell id="y8cSAP5ComAQN94CUCU0-17" value="Conferir Finanças" style="ellipse;whiteSpace=wrap;html=1;" parent="1" vertex="1">
          <mxGeometry x="280" y="350" width="120" height="80" as="geometry" />
        </mxCell>
        <mxCell id="y8cSAP5ComAQN94CUCU0-19" style="edgeStyle=orthogonalEdgeStyle;rounded=0;orthogonalLoop=1;jettySize=auto;html=1;entryX=-0.008;entryY=0.375;entryDx=0;entryDy=0;entryPerimeter=0;" parent="1" source="y8cSAP5ComAQN94CUCU0-8" target="y8cSAP5ComAQN94CUCU0-17" edge="1">
          <mxGeometry relative="1" as="geometry" />
        </mxCell>
        <mxCell id="y8cSAP5ComAQN94CUCU0-20" value="Cadastro Financeiro " style="ellipse;whiteSpace=wrap;html=1;" parent="1" vertex="1">
          <mxGeometry x="600" y="350" width="120" height="80" as="geometry" />
        </mxCell>
        <mxCell id="y8cSAP5ComAQN94CUCU0-26" value="Receitas" style="ellipse;whiteSpace=wrap;html=1;" parent="1" vertex="1">
          <mxGeometry x="600" y="213" width="120" height="80" as="geometry" />
        </mxCell>
        <mxCell id="y8cSAP5ComAQN94CUCU0-30" value="Cozinheiro" style="shape=umlActor;verticalLabelPosition=bottom;verticalAlign=top;html=1;outlineConnect=0;" parent="1" vertex="1">
          <mxGeometry x="930" y="230" width="30" height="60" as="geometry" />
        </mxCell>
        <mxCell id="y8cSAP5ComAQN94CUCU0-32" style="edgeStyle=orthogonalEdgeStyle;rounded=0;orthogonalLoop=1;jettySize=auto;html=1;entryX=1;entryY=0.588;entryDx=0;entryDy=0;entryPerimeter=0;" parent="1" source="y8cSAP5ComAQN94CUCU0-30" target="y8cSAP5ComAQN94CUCU0-26" edge="1">
          <mxGeometry relative="1" as="geometry" />
        </mxCell>
        <mxCell id="y8cSAP5ComAQN94CUCU0-36" style="edgeStyle=orthogonalEdgeStyle;rounded=0;orthogonalLoop=1;jettySize=auto;html=1;dashed=1;" parent="1" source="y8cSAP5ComAQN94CUCU0-34" edge="1">
          <mxGeometry relative="1" as="geometry">
            <mxPoint x="660" y="200" as="targetPoint" />
          </mxGeometry>
        </mxCell>
        <mxCell id="y8cSAP5ComAQN94CUCU0-41" value="&amp;lt;depends&amp;gt;" style="edgeLabel;html=1;align=center;verticalAlign=middle;resizable=0;points=[];" parent="y8cSAP5ComAQN94CUCU0-36" vertex="1" connectable="0">
          <mxGeometry x="-0.3587" y="-1" relative="1" as="geometry">
            <mxPoint as="offset" />
          </mxGeometry>
        </mxCell>
        <mxCell id="y8cSAP5ComAQN94CUCU0-34" value="Pedido" style="ellipse;whiteSpace=wrap;html=1;" parent="1" vertex="1">
          <mxGeometry x="780" y="30" width="120" height="80" as="geometry" />
        </mxCell>
        <mxCell id="y8cSAP5ComAQN94CUCU0-39" value="" style="endArrow=none;html=1;rounded=0;" parent="1" edge="1">
          <mxGeometry width="50" height="50" relative="1" as="geometry">
            <mxPoint x="944.5" y="220" as="sourcePoint" />
            <mxPoint x="970" y="70" as="targetPoint" />
          </mxGeometry>
        </mxCell>
        <mxCell id="y8cSAP5ComAQN94CUCU0-40" value="" style="endArrow=classic;html=1;rounded=0;" parent="1" edge="1">
          <mxGeometry width="50" height="50" relative="1" as="geometry">
            <mxPoint x="970" y="69" as="sourcePoint" />
            <mxPoint x="900" y="69" as="targetPoint" />
          </mxGeometry>
        </mxCell>
        <mxCell id="y8cSAP5ComAQN94CUCU0-48" value="&amp;lt;extend&amp;gt;" style="text;html=1;align=center;verticalAlign=middle;resizable=0;points=[];autosize=1;strokeColor=none;fillColor=none;" parent="1" vertex="1">
          <mxGeometry x="916" y="408" width="70" height="30" as="geometry" />
        </mxCell>
        <mxCell id="y8cSAP5ComAQN94CUCU0-49" value="Caixa" style="shape=umlActor;verticalLabelPosition=bottom;verticalAlign=top;html=1;outlineConnect=0;" parent="1" vertex="1">
          <mxGeometry x="1200" y="510" width="30" height="60" as="geometry" />
        </mxCell>
        <mxCell id="y8cSAP5ComAQN94CUCU0-50" value="Garçon " style="shape=umlActor;verticalLabelPosition=bottom;verticalAlign=top;html=1;outlineConnect=0;" parent="1" vertex="1">
          <mxGeometry x="630" y="510" width="30" height="60" as="geometry" />
        </mxCell>
        <mxCell id="y8cSAP5ComAQN94CUCU0-53" style="edgeStyle=orthogonalEdgeStyle;rounded=0;orthogonalLoop=1;jettySize=auto;html=1;entryX=0.5;entryY=0.5;entryDx=0;entryDy=0;entryPerimeter=0;dashed=1;" parent="1" source="y8cSAP5ComAQN94CUCU0-11" target="y8cSAP5ComAQN94CUCU0-50" edge="1">
          <mxGeometry relative="1" as="geometry">
            <Array as="points">
              <mxPoint x="790" y="540" />
              <mxPoint x="790" y="540" />
            </Array>
          </mxGeometry>
        </mxCell>
        <mxCell id="y8cSAP5ComAQN94CUCU0-55" value="&amp;lt;extend&amp;gt;" style="edgeLabel;html=1;align=center;verticalAlign=middle;resizable=0;points=[];" parent="y8cSAP5ComAQN94CUCU0-53" vertex="1" connectable="0">
          <mxGeometry x="0.0237" y="1" relative="1" as="geometry">
            <mxPoint as="offset" />
          </mxGeometry>
        </mxCell>
        <mxCell id="8Jqhc9cDbzmYi-1y2E3s-1" value="" style="endArrow=classic;html=1;rounded=0;entryX=0;entryY=0.5;entryDx=0;entryDy=0;exitX=1.017;exitY=0.613;exitDx=0;exitDy=0;exitPerimeter=0;dashed=1;" parent="1" source="y8cSAP5ComAQN94CUCU0-16" target="y8cSAP5ComAQN94CUCU0-26" edge="1">
          <mxGeometry width="50" height="50" relative="1" as="geometry">
            <mxPoint x="430" y="330" as="sourcePoint" />
            <mxPoint x="480" y="280" as="targetPoint" />
          </mxGeometry>
        </mxCell>
        <mxCell id="8Jqhc9cDbzmYi-1y2E3s-3" value="&amp;lt;extend&amp;gt;" style="edgeLabel;html=1;align=center;verticalAlign=middle;resizable=0;points=[];" parent="8Jqhc9cDbzmYi-1y2E3s-1" vertex="1" connectable="0">
          <mxGeometry x="-0.0913" y="-1" relative="1" as="geometry">
            <mxPoint as="offset" />
          </mxGeometry>
        </mxCell>
        <mxCell id="8Jqhc9cDbzmYi-1y2E3s-4" value="" style="endArrow=classic;html=1;rounded=0;entryX=0;entryY=0.5;entryDx=0;entryDy=0;exitX=1.017;exitY=0.613;exitDx=0;exitDy=0;exitPerimeter=0;dashed=1;" parent="1" edge="1">
          <mxGeometry width="50" height="50" relative="1" as="geometry">
            <mxPoint x="402" y="396" as="sourcePoint" />
            <mxPoint x="600" y="390" as="targetPoint" />
          </mxGeometry>
        </mxCell>
        <mxCell id="8Jqhc9cDbzmYi-1y2E3s-5" value="&amp;lt;extend&amp;gt;" style="edgeLabel;html=1;align=center;verticalAlign=middle;resizable=0;points=[];" parent="8Jqhc9cDbzmYi-1y2E3s-4" vertex="1" connectable="0">
          <mxGeometry x="-0.0913" y="-1" relative="1" as="geometry">
            <mxPoint as="offset" />
          </mxGeometry>
        </mxCell>
      </root>
    </mxGraphModel>
  </diagram>
</mxfile>
